<svg viewBox="0 0 889.2 999.9999999999999" xmlns="http://www.w3.org/2000/svg" width="2223" height="2500"><path d="M728.5 527.3c-.8.4-5.6 2.8-7 3.3-9.9 4.4-18.8 3.7-28.7-2.1-7.1-4.2-13.7-13.4-16.3-16.6-2-2.5-4.5-5.9-8-9.1-6.6-5.9-15.5-9.8-30.9-9.5-1.2 0-2.5-.3-3.6-.8-15.6-8.2-42.4-18.3-68-17-5.1.3-5.8-3.4-7.5-7.5-4.7-12.5-8.1-18.2-11.2-22.7-4-5.8-5.8-5.8-9.1-6.7-3.7-1-7.8-1.4-10.2-5.8-.3-.5-1.5-2.8-.1-4.4 3.4-4 12.8-9.4-1.3-17.4-8.6-4.9-4.8-8-3.4-8.8 2-1 5.4-1.8 9.5-1s8.9 3.3 13.6 8.7c4.6 5.4 20.2 30.7 29.7 49.9.1.3.3 1.6 2.1 1.8 2.7.3 7.2.3 8.1.4 1.5.1 1.5-1.1 1.3-1.5-13.5-44.6-28.9-100.2-55.8-138.9-.5-1.1-.1-2.3 1.6-2.1 24 2.5 31 36.7 45.1 59.1 18.1 28.9 28.7 17.6 30.4-1.9 1.2-13.6-2.4-30.9-11.9-40.7-2.3-2.7-6.3-6.2-7.9-8.3-.6-.7-.7-2 .9-2.4.7-.2 1.6-.2 2.9-.2 11.1.9 26.5 9.8 33 19.8 13.3 20.5 12.3 31.6 10.5 38.8-3.1 12.5-8.9 19.6-1.7 39.3 14.3 39 10.5 30.8 2.4 55.4-.7 1.9.4 3.2 2.1 3.1 18.7-1.7 24.4 2.5 28.4 4.7.4.2.8.5 1.1.5.7-.2 1-1.2 1.1-2.4 1.5-10.5-.7-15-3.1-21.2-1.4-3.6-3-7.7-3.5-11.7-.8-5.1.1-8 1.7-11.9 2.6-6.5 4.2-11.6 2.1-21.5-4.7-20.8-21.8-55-32.6-74.7-.9-1.7-8.3-15.8-9.5-17.8-.8-1.4-.5-3.1.1-4.5.5-1.1 1.3-3.3 1.3-3.3 2.6-6.6 4-11.7 4.8-17.5 2.5-18.6-2.4-31.9-15.8-43-12.5-10.3-34.8-14.8-64.5-13.2l-6.3.4c-27.9 1.6-59.6 3.4-83.5 1.4-23.1-1.9-36.5-5.6-41.2-11.2-1.5-1.8-2.1-3.8-1.8-6.3.5-5 3.5-10 8.3-13.7 4.1-3.2 9-4.9 12.5-4.4 6.2.2 13 3.7 20.9 7.8 7.1 3.6 15.1 7.7 24.4 10.4 7.9 2.3 15.7 3.3 23.1 3 7.1-.3 14-1.7 20.6-4.4 2.8-1.1 4.8-2.4 5.7-3.2.4-.4.6-1.2.1-1.9-.3-.4-.7-.4-2.2-.4-9.9 0-18.7-1.6-24.3-2.9-6.2-1.6-6.7-3.1-6.7-3.6.1-1.3 3.4-2.6 7.1-2.8 18.3-.8 32.3.2 41.5.8 3.2.2 5.7.4 7.5.4h4.4c.5-.1.7-.4.8-.6.1-.3 0-.7-.3-.9-6.4-5.3-27.4-13.4-51.3-17.6-38.4-6.8-64.2-1.2-79 4.7-2.9 1.2-10.6 4.5-17.3 9.7-7.4 5.8-11.6 12.1-12.4 18.7-1 8.9 5.4 20.3 41.8 24.6 38.5 4.5 74.5 3.8 106.2 3.3 3.3-.1 6.6-.1 9.8-.2 20.1-.3 37.1 4.5 44.4 12.7 8.4 9.4 8.9 21.9 6.8 29.8-.6 2.3-1.9 5.7-3.4 7.9-2.3 3.1-4.8 4.1-9.5 2.8-14.9-3.9-41.4-12.7-54.2-17-11.4-3.9-20.5-6.9-28.1-8.8-22.8-5.6-29.9-1.9-45.1 7.8-3.7 2.3-7.4 4.9-11.8 7.8-6.3 4.3-13.4 9.1-22.8 15-5.7 3.6-13.2 7.7-21.1 12-8 4.4-16.4 9-24.5 13.9-26.1 15.4-30.3 35.9-35.1 59.8-3.4 16.9-7.3 36.1-20.2 55.5-1.4 2.1-12.6 15.7-15 19.6-8.8 14.2-13.6 26.5-11.7 47.1 1.4 15.4-3.9 28.9-9 41.9-4 10.2-7.8 19.9-8.4 30.2-.5 6.4-.2 12.4 0 18.1.4 9.6.5 19.1-2.4 27.4-2.2 6.4-7.9 12.6-10.1 18.8-2.9 7.9-4.8 19.2-4.8 29.5-.2 8.7-6.6 15.1-13.5 21.9-6 6-12.3 12.2-14.6 20.3-.3 1.1-.5 1.9-.9 2.6-.6 1-1.5 1.6-2.7 2.4-2.3 1.6-5.1 3.8-8.2 10-2.6 5.2-1.8 14.4.5 18.9.4.7 1.4 2.3 2.9 2.5 1.1.1 2.1-.4 3.2-1.7 0 0 6.7-7.7 9.3-10.1.7-.7 1.8-.7 2.6-.2.7.5.9 1.5.5 2.5-.3.6-4.3 7.7-6.6 13.8l-.1.1c-.3.9-.7 1.9-.1 2.8.5.9 1.9 1.3 4.1 1.5 1 0 2 .1 2.9.1 12.4 0 18.9-3.3 22.2-6.2 1.3-1.4 1.6-2 2-3 .1-.3.2-.5.4-.9 2.5-6.6 4.1-14.3 4.3-20 0-2.4.7-3.1 2.4-4.8 6.5-6.6 6.5-15.3 6.5-23.7 0-7.7 0-15.7 5.1-22 13.8-15.5 21-33.6 28-51.1 7.2-18.1 14.6-36.7 29.3-52.3 3.7-3.8 7.3-5.9 9.7-5.5 1.2.2 2.1.9 2.8 2.3 3.1 5.8 2.2 13.7 1.3 21.3-1 8.6-2 16.7 2.5 22 3 3.9 3.9 8.1 2.4 12-1.9 6.2-7.9 25.1-21.9 33.4-.3.2-4 2.9-5.2 4-.6.6-1 1.4-1.6 2.3-1.2 2.2-2.8 4.9-7.6 6.4-5.3 1.3-10.3 4.6-13 8.4-7.4 10.5-7.1 23.5-6.4 27.3.3 1.4.8 3.3 2.1 5.2.8 1.2 1.8 1.8 2.8 2 .8.1 1.7-.1 2.5-.7s1.8-1.7 3-3.2c1.9-2.2 4.3-5 7.3-7.2 1-.7 1.9-.5 2.5-.1.5.4.8 1 .6 1.5-.3 1-1.2 2.4-2.3 4.2-1.4 2.3-3.2 5.1-4.7 8.5-.3.7-.4 1.4-.1 2 .4.9 1.4 1.3 1.7 1.4 9 2.8 22.3-.5 29.8-7.6 3.8-3.5 5.6-8.2 5.6-14.3 0-1.5.7-3.9 2.3-5.5 5.3-4.5 7.5-11.6 9.8-19 .6-1.8 1.1-3.6 1.7-5.4 2.4-7 5.5-13.1 13.2-19.7 9.9-9.2 14.3-17.9 17.1-23.3 2.9-5.8 3.5-9 5.6-12.4 4.1-6.5 18-7.7 23.2-4.7 2.1 1.3 2.6 3 1.4 5.2-.8 1.4-8.1 13.3-11.6 21.4-1.7 4-5.5 5.5-7.8 6.8-13.8 8-16.3 23.2-16.7 29.4-.1 1.9.1 4.5 1.1 6 .6.8 1.4 1.4 2.2 1.5.9.1 1.7-.1 2.5-.7s8.3-8.1 9.1-8.9c1.2-1.1 2.3-.9 2.9-.4s.8 1.5.1 2.7c-1 1.5-6.2 9.3-5.6 11 1 2.9 4 2.8 6.9 2.8 23.6-2 32-18.8 32-18.8.6-1 1.3-2.3.9-5.8-.7-6.3-2.2-28.2 10.5-41.8 3.8-4.2 6-1.4 6.8.5 1.5 3.3 3.8 9.1 5.1 12 2.7 6.2 4.6 10.7 7.8 16.8 5.3 10.3 13.3 11.7 23.2 10.5 12.8-1.6 21.6-.6 30.1.3 7.3.6 11.3 1.1 16.7-3.8 2.9-2.7 8.5-7.6 12.3-12.9 2.4-3.4 3.1-5.5 2.5-10.7-1.8-26.3 11.9-49.1 36.5-61.1 3.7-1.5 7.8-1 10.3 2.3 5.5 8.2 18.4 29.2 18.4 47 0 1.7-.7 3.5-1.4 5.7-1.7 4.9-3.9 10.9.1 19.2.2 7.1-2.4 12.7-4.7 17.7-3.3 7-6 12.6 3.1 18 2.6 1.5 5.9 2.9 10.2 4.2.2.1.5.1.7.1.3 0 .7-.1 1-.3s.5-.5.5-.8c.3-2.1.5-9.2.9-10.9.2-.7.5-1.5 1.3-1.5.7 0 1.4.5 1.6 1.1.7 1.7 2.6 8.7 3.1 9.8.4 1 1 1.6 1.7 1.8 3.7 1.1 8.6-5.2 10.5-8.5 3.2-6.7 1.9-16.5-3.3-25.2-.8-1.7-.9-2.3-.9-3.8 1.9-7.8.5-11.8-1-16-.9-2.4-1.7-4.9-2.1-8.4-1.4-12.4 6.2-51.5 6.9-55.5 1.3-7.3 2.3-12.5 2.8-17.8.4-5.2-1.7-11.2-5.3-15.1-3.3-3.5-7.3-6.7-11.1-9.9-3.4-2.8-6.6-5.4-9.2-8-4.2-4.3-5.6-10.7-5.5-12.5 0-.5.1-.8.3-.9.1-.1.3-.2.7-.1 5.8.4 10.5 4.3 16.4 9.2 5.3 4.4 11.3 9.4 19.7 13.1 16.6 7.4 32.4 6.3 48.2-3.3 6.7-4.8 8.8-8.9 9.1-9.4-.1-1-.7-3-2.7-1.9m-367.7-65.7c1-7.7 6.6-15.8 9.1-25.4 3.5-10.8 4.5-29.7 6.4-44.6 1-7.5 3.8-10.6 9.2-11.3 3.5-.3 7.3 2.8 9.2 13.3 6.6 43.1 19.6 49.1 27.1 60.5.1.2.3.4.4.6 1.9 3.6 2.5 6.9-.5 9.3-1.8 1.4-7.7 3.5-17.7-2.5-12-7.3-13.9-15.1-33.8.9 0 0-2.7 2.1-5.2 2.6-2.2.7-4.6-.2-4.2-3.4m104.4 158.2c-.7.5-1.5.2-2.7-.6-7.9-5.1-29.9-9.1-48.4-1.6-19.1 7.7-36.5 18.4-37.7-.4-.2-16.7 3.3-24-2.5-33.9 0 0-.2-.3-.5-.8-.5-.8.1-1 .3-1 26.8-2.1 33.9-10.5 35.6-13.4.4-.7-.1-1.3-.8-1.4-6.1-.7-36.8-1.6-49.2.2-21.7 3.1-36.3 35.8-39.1 38.9-3.3 3.6-7.4.8-7.4-2.4 0-5.5 3.2-31.9 5.4-41.1 3.4-14.5 8-25.3 22.2-27.5 9.9-1.5 34.3-4.1 32.6-10.7-1.4-5.5-2.1-9.7-2.1-12.1 0-3.2 1.6-3.9 4.9-3.1 2.4.5 5.6 2 9.8 2.9 30.7 7.2 46.4 1.5 64.6-6.6.5-.2 7.3-3.3 7.7-3.5 3.3-1.8 7.4 1.5 5.6 5.4-1 2.1-2.3 3-5.1 5.7-6 5.8-28.5 24.3-15 55.5 10.6 24.3 13.6 30.6 21.1 47.2 1.4 2.5 1.6 3.7.7 4.3m57 42.1c-1.5 2.3-3.8 4-8.3 4-5.5 0-9.4-1.7-11.7-4.1-4.8-5.1-5.4-12.1-4.2-16.7.7-2.9 2.5-4.8 4.4-5.4.8-.3 1.3-.2 1.7.3.8 1.3 3.8 6 4.5 7 .8 1.1 2.3 2.2 3.4 2.6 2.2.9 5.1 1.7 6.6 2.3 4.6 2.1 5.6 6.8 3.6 10m88.4-86c-.6.9-1.1 1.1-1.9 1.4-27.8 10.5-49.9 38.9-45.8 72.9.1 1.8-.5 4.3-2.2 5.9 0 0-5.8 5.9-9.5 8.4-1.2.9-2.7 1.6-5.9 1.4-4.1-.3-8.2-.5-12.4-.8-1.9-.3-1.1-2-1-2.4s.3-.8.4-1.2c1-5.1.3-12.3-6.9-15-1-.6-.4-1.5-.3-1.8 3.1-7.6 6.9-17 10-30.2 1.9-8 .7-12.8-2.1-18.5-.6-1.3-1.4-2.4-2.4-3.5l-4.4-5.8c-1.2-1.4-.9-2.9.9-3.5l6.2-1.6c1.5-.5 1.4-2.8-.1-3.2l-3.2-1c-3-1.2-4.8-3.6-6.2-5.5-.4-.5-.7-1-1-1.6-.7-1.2-1.2-2.5-1.4-3.9l-.4-1.8c0-.9-1.5-.9-2.1-.3-4.9 4.9-6.4 12.4-2.8 18.3 5 8.3 4.8 7.5 9.2 13.8 1.5 2.1 2.3 3.8 2.8 5.8.7 2.8.5 10.1-1.4 15.2l-5.1 15.3c-3.1 6.9-6.5 5.2-8.4 3.9-2.5-1.7-4.8-5.9-6.1-10.5 0 0-3.5-12.8-3.3-29.9-.2-2.1-1.6-5.4-6.1-2.5l-11.9 9.9c-1.7.9-4.6.4-4-3.5 0 0 8.5-38.1 17.7-59.6 6.9-17.5-.8-27.4-9.9-38.2-15-19.1-18.3-44.8 16.5-30.7 9.4 4.3 12.7-1.3 24.3-2.3 8.3-.7 11 2.6 11.7 4.1.6 1.3.9 2.7.9 3.4 0 .3-.1.5-.4.5-19.6 1.1-42.9 17.4-24.9 42.8 17.7 25 66.4 33.4 88.1 9.6.3-.3.4-1-.1-1.4-.3-.3-.7-.3-1.1-.2-4.8 1.8-9.1 3.2-13.5 3.9-10.4 1.7-32.4.5-42.8-11.4-6-6.8-5.8-14.6 4.3-15.8 5.6-.4 8.3.6 10.8.6 6.3-.1 7.6-6.4 6.3-9.2-1.1-2.7-3.6-6-7.1-8.9-3.2-2.3-1.5-4.7.6-4.7 20.1 1.1 39.4 4.6 46.7 28.8.3.9.8 4 1.5 5.1 1.6 2.3 4.3 4 7.3 6.7 7.6 6.8 14.1 18.1-8.1 52.7m26.2-15c3.5-7.4 8.3-2.4 10.6 5.7 2.9 10.3 3.3 26.9 2.1 35.5-1.6 11.2-6.8 8.9-9.7 5-4.4-6.3-9.2-14.6-12.6-20.3-.1-.2-.2-.3-.3-.5-1.5-3.2-1.8-5.8-.2-8.2 1.8-2.7 8.5-13.8 10.1-17.2M444.6 13.3c78 0 152.9 6.3 222.6 18.8 64.3 11.5 121.5 27.7 169.9 48.1 15.2 7 24.5 14.7 30.2 24.7 5.9 10.4 8.6 25 8.6 45.9 0 97.3-9.4 188.8-28.1 272-17.8 79.4-44.5 154-79.6 221.9C703.5 770.1 609.6 877 480.9 971.8c-15.9 11-25.4 14.9-36.3 14.9s-20.4-3.9-36.3-14.9C279.7 877 185.7 770.1 121 644.7c-35-67.9-61.8-142.5-79.6-221.9-18.6-83.2-28.1-174.7-28.1-272 0-20.8 2.7-35.4 8.6-45.9 5.7-10.1 15-17.7 30.2-24.7C100.5 59.9 157.7 43.7 222 32.1c69.7-12.4 144.6-18.8 222.6-18.8m0-13.3C280.4 0 141.5 28 46.7 68.1 12 84.1 0 105.5 0 150.9c0 403.2 157.5 652.9 400.5 831.8 17.4 12 29.4 17.3 44.1 17.3s26.7-5.3 44.1-17.3c243-178.9 400.5-428.6 400.5-831.8 0-45.4-12-66.7-46.7-82.8C747.7 28 608.8 0 444.6 0M74.2 107.1v92.8c8.9-2.9 17.9-5.6 27-8.2l-.7 14.6c-13.9 4.1-27.8 8.4-41.6 12.8V111.9zm59.6 51.3l11.6-52.7 11.9 46.8zm26.8 7.6l6.4 25.1 16.3-3.7-27.5-102.8-19.8 5L108.7 206l15.8-4.4 6.1-28.1zm46 17.3v-75.2c0-2.9 0-6.6-.2-9.9.7 3.7 1.5 6.6 2.2 9.2l22.2 73.4.8-.1 22.7-81c.9-3.3 1.8-7.2 2.6-10.3-.2 3.3-.4 7.2-.4 10.3v74.4l15.4-2.3V63.3l-20 2.9-16.7 61.1c-.7 2.7-1.7 6.4-2.6 10.3-.5-3.7-1.3-7-2-9.4L214 72.7l-20.8 4V186l14.3-2.7zm120.5-18.2c17.5-2 27.3-9.7 27.3-26.2v-13.6c0-10.2-4.2-16.2-13.3-17.9 7.9-3.3 11.4-9.2 11.4-17.9V79c0-16.4-10-24.9-30.3-22.5l-31.1 3.6v109zm-20.7-92.2l15.2-1.6c10.3-1.1 13.6 2.4 13.6 9.8v9.8c0 7.6-3.3 11.6-13.6 12.5l-15.2 1.4zm0 45.1l17.3-1.6c10.2-.9 13.4 2.2 13.4 10.2v12.2c0 7.4-3.6 11.3-13.1 12.2l-17.6 1.6zm96 44.1c20.5 0 34.5-13.1 34.5-35.6V84c0-22.6-13.7-34.5-33-34.5-20.1 0-34.1 14-34.1 36.7v42.5c0 21.9 13.1 33.4 32.6 33.4m-17.3-34.4V84.3c0-12.5 7.6-19.8 17.5-19.8 10 0 17.1 6.2 17.1 18.7v44c0 13.1-7.1 20-17.6 20-9.8 0-16.9-5.8-16.9-18.9m86.3 32v-49.2l10.2.4 18.7 49.5 17.6.9-20.2-52.3c10.5-2.4 15.9-22.6 15.9-22.6V76c0-16.7-9-25.1-27.5-26.1-7.8-.4-21.9-.5-32-.5v109l16.5 1.9zm0-94.7l15 .5c8.2.4 11.8 4.1 11.8 11.3v9.5c0 7.2-3.6 10.8-12.4 10.4l-14.5-.5zm93.9 101.6c20.2 0 30.8-12.3 30.8-31.7v-29.1l-32.6-3.8v14.2l17.3 1.7V135c0 12.3-6.5 17.6-16.1 17.6-11.8 0-20.4-7.7-20.4-21.7v-44c0-11.3 6.4-17.6 15.3-17.6 11.9 0 18.5 9.1 18.7 20.1l15.5 1.9c-.5-20.8-13.6-36.3-35.6-36.3-16.2 0-29.3 10.6-29.3 31.6v43.1c0 25.3 17.4 37.6 37.4 37.6m62.5 3.4v-46.1l30.7 5.1v46.1l15.4 2.8V74.8l-15.4-2.6v43.7l-30.7-5.1V67.1l-15.4-2.5v104zM696 78.9l7.7 1.6 7.7 1.6v104l-15.4-3.5zm49.9 117.6v-69.4c0-4.2-.2-8.5-.2-13.4 1.1 5.2 2.2 8.7 3.4 12.3l28.1 78.4 16.7 4.7V100.8l-13.4-3.9v77.9c-.9-4-1.9-8-3.2-11.9l-25.8-73.4-19-4.5v108.2zm69.1 17.3V108.7l7.7 2.4 7.7 2.4v105.2z" fill="#fed260"/></svg>